<svg xmlns="http://www.w3.org/2000/svg" xmlns:xlink="http://www.w3.org/1999/xlink" viewBox="0 0 1834.4 1992.3"><defs><style>.cls-1{fill:none;}.cls-2{clip-path:url(#clip-path);}.cls-3{fill:url(#linear-gradient);}</style><clipPath id="clip-path" transform="translate(0 0.4)"><path class="cls-1" d="M816.9,227.4s-.7,2.9-1.6,7.8c-8.3,2.4-16.6,4.7-24.9,7.4-11.5,3.5-22.8,7.7-34.3,11.8-11.3,4.4-22.8,8.8-34,13.8a701.7,701.7,0,0,0-66.9,32.9c-21.2,11.9-42.1,25-62.4,39.2-2.9-1.4-5.2-2.4-5.2-2.4C380.3,258.7,196.2,354,196.2,354,179.4,574.5,279,713.5,298.7,738.7c-4.9,13.6-9.5,27.4-13.7,41.3a963,963,0,0,0-33.9,154.3c-1,7.6-1.9,15.3-2.8,23C56.8,1051.9,0,1245.8,0,1245.8c159.9,183.9,346.3,195.3,346.3,195.3.2-.1.3-.3.5-.4a816.31,816.31,0,0,0,82,120.1c12.9,15.7,26.5,30.9,40.6,45.6-58.3,166.7,8.2,305.4,8.2,305.4,178,6.7,294.9-77.9,319.5-97.4,17.7,6,35.7,11.3,53.8,16a807,807,0,0,0,166.7,24.8c14,.6,28,.9,41.9.8h6.8l4.4-.1,8.8-.3,8.7-.4.2.3c83.8,119.6,231.3,136.5,231.3,136.5,104.9-110.6,110.9-220.3,110.9-244v-1.6c0-2-.1-3.3-.1-3.3-.1-1.7-.1-3.3-.3-5.1a674.18,674.18,0,0,0,62.9-49.8,653.67,653.67,0,0,0,109.1-127.9c2.9-4.4,5.7-8.8,8.4-13.3,118.7,6.8,202.4-73.5,202.4-73.5-19.7-123.7-90.2-184-104.9-195.4,0,0-.6-.5-1.5-1.1s-1.4-1-1.4-1c-.7-.5-1.6-1.1-2.6-1.7.7-7.5,1.4-14.9,1.8-22.3.9-13.3,1.2-26.7,1.3-39.9l-.1-9.9-.1-5v-2.5c0-3.4-.1-2.1-.1-3.4l-.4-8.3-.6-11.2c-.2-3.9-.5-7.2-.8-10.7s-.6-6.9-1-10.3l-1.2-10.3-1.4-10.2c-2-13.6-4.6-27.1-7.7-40.4a512.24,512.24,0,0,0-160.9-269.1,505.64,505.64,0,0,0-127-81.7,498.24,498.24,0,0,0-211-43.5l-8.7.2-2.2.1c-.6,0-3.3.1-3,.1l-3.6.2-8.7.6c-3.3.2-6.7.5-9.6.8-12,1.2-23.9,2.8-35.7,5A395.77,395.77,0,0,0,890.6,837.7a389.94,389.94,0,0,0-63.9,107.8,382.15,382.15,0,0,0-25.4,115.3c-.6,9.5-.8,19-.6,28.4,0,2.3.1,4.7.2,7l.3,7.6c.3,4.6.7,9.1,1.1,13.6a306.49,306.49,0,0,0,10.6,55.7,297.61,297.61,0,0,0,118,163.3,289.44,289.44,0,0,0,81,38.5,281.59,281.59,0,0,0,80.5,11.5c3.2,0,6.4-.1,9.6-.2,1.7,0,3.4-.2,5.1-.2l5.1-.3c2.7-.3,5.5-.5,8.2-.8.6,0,1.5-.2,2.3-.3l2.5-.3c1.7-.2,3.3-.5,5-.7,3.4-.4,6.3-1.1,9.3-1.6s6-1.2,9-2c5.9-1.3,11.6-3.1,17.3-4.8a223.72,223.72,0,0,0,31.5-13.2,226.23,226.23,0,0,0,27.2-16.6c2.4-1.7,4.7-3.5,7-5.3a20.41,20.41,0,0,0-22.5-33.9c-2.1,1.2-4.3,2.3-6.5,3.4a191.13,191.13,0,0,1-23.6,9.7,208.54,208.54,0,0,1-25.9,6.4c-4.5.6-9,1.3-13.6,1.7a53.74,53.74,0,0,1-7,.4c-2.3.1-4.8.3-6.9.2s-4.4-.1-6.7-.1c-2.8-.1-5.6-.3-8.4-.4,0,0-1.4,0-.3-.1l-.9-.1-1.9-.2c-1.3-.1-2.5-.2-3.8-.4-2.5-.3-5-.6-7.5-1a219.15,219.15,0,0,1-60.1-17.6,216.16,216.16,0,0,1-55.5-36.4,210.7,210.7,0,0,1-43.4-54.4,204.21,204.21,0,0,1-23.5-68,206.3,206.3,0,0,1-2.4-36.8c.2-3.4.3-6.7.5-10.1,0,.9.1-.5.1-.6l.1-1.2.2-2.5c.1-1.7.3-3.3.5-5,.7-6.6,1.7-13.3,2.9-19.8a261.69,261.69,0,0,1,109.4-170,257.07,257.07,0,0,1,37.2-21.2,261,261,0,0,1,40.5-14.7,254.35,254.35,0,0,1,42.7-7.5q10.88-.9,21.8-.9c1.9,0,3.4.1,4.9.1l5.9.2,3.7.1c1.5,0,0,0,.7.1l1.5.1,5.9.4a333.75,333.75,0,0,1,135.7,40.7c56,31,103.7,79.5,133,138a315.29,315.29,0,0,1,30.2,92.9c1.2,8.1,2.2,16.3,2.9,24.5l.5,6.2.3,6.2c.1,2.1.1,4.1.2,6.2s.1,4.3.1,5.8v5.3l-.1,6c-.2,4-.5,10.5-.7,14.5-.7,8.9-1.4,17.9-2.6,26.8s-2.6,17.6-4.2,26.4c-1.8,8.7-3.6,17.4-5.9,26a411.87,411.87,0,0,1-16.4,50.8,427.24,427.24,0,0,1-51.7,93.8c-42.3,58.1-100,105.6-165.6,135.4a416.46,416.46,0,0,1-103,31.6,405.16,405.16,0,0,1-53.8,5.4l-3.3.1h-2.9l-5.8.1h-13.3c2.5,0-.4,0-.3-.1l-1.8-.1c-9.7-.2-19.3-.7-28.9-1.4a551.75,551.75,0,0,1-113.5-20.5,559.52,559.52,0,0,1-106.6-43c-67.7-36.2-128.2-85.8-175.6-145.6A553.62,553.62,0,0,1,534,1191.4a551.58,551.58,0,0,1-18.5-110.3l-.4-7-.1-1.7v-1.5l-.1-3.1-.2-6.1-.1-1.5v-6.4l-.1-8.7v-5.7c0-4.5.2-9.1.3-13.6.7-18.4,2.2-37.3,4.6-56.2s5.5-37.9,9.4-56.8,8.5-37.5,13.7-55.8a738,738,0,0,1,39.1-105.9c31.1-67.3,71.9-126.6,120.9-174.4a507.11,507.11,0,0,1,38.1-33.9c13.2-10.6,26.9-20.4,41-29.6A483.18,483.18,0,0,1,825,487.7c7.4-4,15-7.5,22.6-11.2,3.8-1.7,7.7-3.4,11.5-5.1s7.7-3.4,11.6-4.9c15.5-6.6,31.5-12.1,47.5-17.3,4.1-1.2,8.1-2.5,12.1-3.7s8.2-2.2,12.2-3.4c8.1-2.3,16.4-4.2,24.6-6.3,4.1-1.1,8.3-1.8,12.4-2.7s8.3-1.8,12.5-2.6,8.4-1.5,12.5-2.3l6.3-1.1,6.3-1c4.2-.6,8.4-1.3,12.6-1.9,4.7-.8,9.5-1.2,14.2-1.9,3.9-.5,10.2-1.2,14.1-1.7l8.9-.9,5.9-.6,3-.3,3.5-.2,14.3-.9,7.1-.5s2.6-.1.3-.1l1.5-.1,3-.1,12.2-.6c16.2-.5,32.3-.5,48.2,0a666.74,666.74,0,0,1,93.6,10.4,653.58,653.58,0,0,1,170,56.5,685.08,685.08,0,0,1,138.8,90.5c2.5,2.1,5,4.3,7.5,6.4s4.9,4.3,7.3,6.5c4.9,4.3,9.6,8.8,14.3,13.1s9.2,8.9,13.8,13.3c4.4,4.5,8.9,8.9,13.2,13.5,17.1,18.1,33,36.5,47.3,55a715.45,715.45,0,0,1,69.9,109.3c1.2,2.2,2.3,4.4,3.4,6.6s2.2,4.4,3.2,6.6c2.1,4.3,4.3,8.6,6.2,12.9s4,8.5,5.9,12.7,3.6,8.4,5.4,12.4c6.8,16.5,13,32.1,18.1,47,8.4,23.9,14.5,45.5,19.3,64.2a15.74,15.74,0,0,0,31-3.5,674.43,674.43,0,0,0-22.4-185.4A714.66,714.66,0,0,0,1760.1,627a751.12,751.12,0,0,0-148.4-203c28-111.4-34.1-208-34.1-208-107.2-6.7-175.4,33.3-200.7,51.6-4.2-1.8-8.5-3.6-12.8-5.4-18.3-7.4-37-14.3-56.3-20.4s-39-11.7-59.1-16.4-40.7-8.7-61.6-11.9c-3.7-.5-7.3-1-11-1.6C1129.5,62.5,995.2,0,995.2,0,845.4,94.5,816.9,227.4,816.9,227.4"/></clipPath><linearGradient id="linear-gradient" x1="4.37" y1="9552.38" x2="11.48" y2="9552.38" gradientTransform="matrix(0, -255.77, -255.77, 0, 2444168.47, 3556.96)" gradientUnits="userSpaceOnUse"><stop offset="0" stop-color="#fff200"/><stop offset="1" stop-color="#f15a29"/></linearGradient></defs><g id="Layer_2" data-name="Layer 2"><g id="Layer_1-2" data-name="Layer 1"><g class="cls-2"><path class="cls-3" d="M0-.4H1834.4V1991.9H0Z" transform="translate(0 0.4)"/></g></g></g></svg>