<svg xmlns="http://www.w3.org/2000/svg" viewBox="0 0 49.23 56.42"><defs><style>.cls-1{fill:none;}.cls-2{fill:#221f1f;}.cls-3{fill:#67cfe3;}.cls-4{fill:#dfcaa3;}.cls-5{fill:#648c1a;}</style></defs><g id="Layer_2" data-name="Layer 2"><g id="Layer_1-2" data-name="Layer 1"><path class="cls-1" d="M27.43,21.73a4.82,4.82,0,1,0,4.81,4.82,4.81,4.81,0,0,0-4.81-4.82Zm-.65,7.94a1.52,1.52,0,1,1,0-3h0a1.52,1.52,0,0,1,0,3Zm-.21,3.47a8.33,8.33,0,0,0-3-.49H23a2.52,2.52,0,0,0-2.51-.77,2.52,2.52,0,0,1,2.51.77.87.87,0,0,1,.1.42c0,.71-.92,1.42-2.15,1.67l-.09,0-.08,0c-1.33.22-2.52-.17-2.76-.88l-.45.15c-.27.09-2.71,1-2.93,2.66a1.87,1.87,0,0,0,.44,1.51A2.57,2.57,0,0,0,17,39a2.25,2.25,0,0,0,1.11-.27c.19-.1.4-.23.62-.37a7.13,7.13,0,0,1,2.82-1.21l.51,0,.87,0,1.2,0a6.17,6.17,0,0,0,2.42-.32,2.16,2.16,0,0,0,1.37-2.41C27.83,33.92,27.35,33.46,26.57,33.14Zm-.33,3a6.13,6.13,0,0,1-2.12.25c-.74,0-1.51,0-2.07,0a5.08,5.08,0,0,0-.6,0,10,10,0,0,0-3.71,1.67,1.5,1.5,0,0,1-.75.17c-.83,0-1.76-.5-1.63-1.47.17-1.3,2.44-2.07,2.44-2.07a2.33,2.33,0,0,0,2.05.78,7.56,7.56,0,0,0,1.16-.1c2.37-.35,2.52-2,2.52-2,2.55,0,3.59.76,3.66,1.19a1.41,1.41,0,0,1-1,1.62Z"/><path class="cls-1" d="M20.73,38a8.71,8.71,0,0,0-1.64.87h0c.11.51.47,1.67,1.49,1.37.52-.15.53-.8.42-1.38A6.22,6.22,0,0,0,20.73,38Zm2.64-.27h-.28l-.87,0a3.59,3.59,0,0,0-.47,0c-.12,0-.24,0-.36.06a7.78,7.78,0,0,0,.24,1.08c.13.46.32.88.57,1a.92.92,0,0,0,1.27-1v-.14c0-.33-.05-.66-.09-1ZM12.08,33.22a1.52,1.52,0,1,1,1.52-1.51A1.51,1.51,0,0,1,12.08,33.22Z"/><path class="cls-2" d="M12.31,50.94c-.82.19-3.25,1.5-5.34,1.9s-3.91.62-4.54.85-1.13.71.12,1.18,7.29.63,7.83,0S10,54,8.69,54c-.94,0-.83-.31-.83-.35s.06-.41,1.51-.61,7.84-.8,7.72-1.48S13.13,50.75,12.31,50.94Z"/><ellipse class="cls-2" cx="8.16" cy="55.97" rx="1.25" ry="0.37" transform="translate(-11.72 3.02) rotate(-12.28)"/><ellipse class="cls-2" cx="5.26" cy="55.81" rx="1.32" ry="0.35" transform="translate(-4.41 0.59) rotate(-4.55)"/><ellipse class="cls-2" cx="2.95" cy="55.52" rx="0.88" ry="0.28" transform="translate(-7.47 0.91) rotate(-7.76)"/><ellipse class="cls-2" cx="1.23" cy="55.26" rx="0.85" ry="0.22" transform="translate(-7.93 0.75) rotate(-8.26)"/><ellipse class="cls-2" cx="0.84" cy="54.77" rx="0.85" ry="0.22" transform="translate(-7.86 0.69) rotate(-8.26)"/><ellipse class="cls-2" cx="0.74" cy="54.23" rx="0.74" ry="0.19" transform="translate(-7.78 0.67) rotate(-8.26)"/><path class="cls-2" d="M24.88,51.6c-1.44.07-4.69-.1-5.13.66s1.31,1,4.09.8,6.71-.55,6.87-1.39S30,51,29.89,50.44s1-.54,1.2-1.34-1.46-.7-2.94-.7-4,.14-4.19.91,1.13.78,2.09,1,.69.54.69.54c0,.49-.43.71-1.86.78Z"/><ellipse class="cls-2" cx="21.04" cy="53.66" rx="1.24" ry="0.41"/><ellipse class="cls-2" cx="24.24" cy="53.57" rx="0.83" ry="0.37"/><ellipse class="cls-2" cx="26.83" cy="53.31" rx="0.91" ry="0.3"/><ellipse class="cls-2" cx="28.82" cy="52.97" rx="0.66" ry="0.32"/><ellipse class="cls-2" cx="30.54" cy="52.61" rx="0.67" ry="0.31"/><path class="cls-2" d="M1.28,43.93c0,.41.87.78,2.43,1.12a7.9,7.9,0,0,1,.06-2.25c-1.59.34-2.49.73-2.49,1.13Zm45.87-1a3.57,3.57,0,0,1-.89,1.37,4.64,4.64,0,0,1-1.87,1.21c3-.43,4.84-1,4.84-1.54C49.23,43.56,48.49,43.21,47.15,42.89Z"/><path class="cls-3" d="M42,42.05a4.11,4.11,0,0,0-1.33-2.61,2.1,2.1,0,0,1-.81-1.92c.14-.84.8-1.35,1.89-1.49-.66-4.46-1.63-10.1-2.87-14.9A9.69,9.69,0,0,0,35.91,16q-2.64,1.34-5.35,2.5-2.19.94-4.41,1.82A14,14,0,0,1,23,23.08a3.55,3.55,0,0,1-1.47.35,2.25,2.25,0,0,1-1.84-.87,7.45,7.45,0,0,1-.82.17l-1,.08a1.32,1.32,0,0,1-.21,1.29,2,2,0,0,1-1.66.61,14.18,14.18,0,0,1-4.83-1.28l-.86-.34H9.79c-2,0-3.61-.06-4.85-.16-1.36,2.81-.77,5.94-.27,8.52A72.81,72.81,0,0,0,8.34,42.1c.57,1.4,1.12,2.71,1.59,3.82,4.16.36,9.48.58,15.29.58a164.65,164.65,0,0,0,17.53-.81c-.32-1.32-.72-3.15-.79-3.61v0ZM7.7,30a4.82,4.82,0,0,1,9.63,0h0A4.82,4.82,0,1,1,7.7,30ZM20.56,40.2c-1,.3-1.38-.86-1.49-1.37h0A8.71,8.71,0,0,1,20.73,38a6.09,6.09,0,0,1,.25.87C21.09,39.4,21.08,40.05,20.56,40.2Zm1.65-.41c-.26-.09-.45-.51-.58-1a9.41,9.41,0,0,1-.24-1.08c.12,0,.24-.05.37-.06a3.27,3.27,0,0,1,.46,0l.87,0h.28c0,.22.06.54.09,1v.14a.92.92,0,0,1-1.26,1Zm4.33-2.93a6.14,6.14,0,0,1-2.42.32l-1.2,0-.87,0-.51,0a7.13,7.13,0,0,0-2.82,1.21c-.22.14-.43.27-.62.37A2.36,2.36,0,0,1,17,39a2.57,2.57,0,0,1-1.92-.8,1.87,1.87,0,0,1-.44-1.51c.23-1.7,2.66-2.57,2.94-2.66l.44-.15,0-.14c-.13-.79.9-1.62,2.31-1.86l.19,0a2.52,2.52,0,0,1,2.51.77h.54a8.33,8.33,0,0,1,3,.49c.78.32,1.26.78,1.35,1.31A2.16,2.16,0,0,1,26.54,36.86Zm.89-5.5a4.82,4.82,0,0,1,0-9.63h0a4.82,4.82,0,0,1,0,9.63Z"/><path d="M33.59,10.33l0-.06,0-.06a.84.84,0,0,0-.24-.18H33.2l-.05,0-.1,0-.2,0a1.64,1.64,0,0,0-.22,0l-.23,0a1.64,1.64,0,0,0-.75.36,2.75,2.75,0,0,0-.48.56,4.22,4.22,0,0,0-.47,1.11,5,5,0,0,0-.14.82,2.2,2.2,0,0,0,0,.23v.08l.15-.27c.1-.17.23-.42.4-.7a6.32,6.32,0,0,1,.6-.89,2.86,2.86,0,0,1,.4-.38,1,1,0,0,1,.43-.19h.22l.11,0,.09,0h0a0,0,0,0,1,0,0,.37.37,0,0,1,0,.18,2.37,2.37,0,0,1,0,.52c0,.18-.06.35-.1.51-.08.31-.15.58-.19.78l-.08.3s.08-.08.21-.24a5.41,5.41,0,0,0,.46-.69q.12-.23.24-.51a2.37,2.37,0,0,0,.16-.66,1.3,1.3,0,0,0-.05-.44l-.06-.13Z"/><path d="M33,10.68h0Z"/><path class="cls-2" d="M3.75,19.53h.06l-.06-.12v.12Zm.59-1.86a4.31,4.31,0,0,0,.4.64l.14.16,0,.06-.06-.28c0-.18-.08-.43-.13-.72l-.06-.45a1.6,1.6,0,0,1,0-.44.35.35,0,0,1,.06-.14l.07,0H4.9s0,0,0,0h0a.56.56,0,0,1,.15.08,2.44,2.44,0,0,1,.36.36c.11.14.23.28.33.43s.42.58.59.82.4.55.62.82v-.07c0-.05,0-.12,0-.21A6.11,6.11,0,0,0,6.3,17,4.59,4.59,0,0,0,6,16.47,2.9,2.9,0,0,0,5.49,16a1.41,1.41,0,0,0-.39-.19l-.13,0h-.4a.81.81,0,0,0-.38.33.93.93,0,0,0-.12.41,1.75,1.75,0,0,0,.07.64A4.53,4.53,0,0,0,4.34,17.67Z"/><path class="cls-4" d="M6.56,47.22A3,3,0,0,0,9,45.81c-.95-2.18-1.84-4.38-2.69-6.59a4.86,4.86,0,0,0-.92,1.1c-.83,1.3-1.53,4.32-.66,5.92a1.87,1.87,0,0,0,1.78,1Zm39.82-7.49A4.24,4.24,0,0,0,43,36.78h-.05a4.45,4.45,0,0,0-.61,0c-.73,0-1.64.16-1.76.91-.09.52.14.79.62,1.29a4.91,4.91,0,0,1,1.52,3c.26,1.89.72,2.85,1.38,2.85.3,0,.86-.18,1.78-1A3.69,3.69,0,0,0,46.38,39.73Z"/><circle class="cls-2" cx="12.08" cy="31.71" r="1.52"/><circle class="cls-2" cx="26.78" cy="28.15" r="1.52"/><path class="cls-5" d="M8,14.76a15.29,15.29,0,0,0,4,.48c2.34,0,7.3-.46,14.29-3.5l.15-.07a4,4,0,0,1,.1-1.15,3.54,3.54,0,0,1,.84-1.7,5.22,5.22,0,0,0-.18-.56c-.8-.43-7.45-2.91-10.91-2.91a4.62,4.62,0,0,0-.9.08c-3.07.62-7.73,6-7.9,6.72a21.16,21.16,0,0,0,0,2.46Zm-.06,7.58a1.57,1.57,0,0,0-.3-.05,1.3,1.3,0,0,1-1.37-1.22v0c-.35.2-.69.41-1,.64l-.58.4-.43-.56a15.29,15.29,0,0,1-1.27-2A4.08,4.08,0,0,0,.92,21a.19.19,0,0,0,0,.21C1.1,21.45,2.1,22.2,7.91,22.34ZM20,20.69a1.28,1.28,0,0,1,1.58.15,1.35,1.35,0,0,0,.34-.11,31.88,31.88,0,0,0,4.68-4.85,1.89,1.89,0,0,1,.2-.2c-4,1.72-9.55,3.61-14.85,3.61a18.34,18.34,0,0,1-2.41-.15l.12.34L9,19.74l-.31.12A24.47,24.47,0,0,1,12.11,21c2.65,1.07,3.67,1.11,3.92,1.09a1.3,1.3,0,0,1,1.17,0c.51,0,1-.07,1.54-.12.22,0,.43-.08.64-.13A1.28,1.28,0,0,1,20,20.69Zm15.44-7.87a9.89,9.89,0,0,1-.81,2.75l-.24.33c.94-.46,1.87-.93,2.77-1.44,2.76-1.54,3.1-2.22,3.14-2.39s0-.14,0-.16-.23-.22-1.1-.22a19.21,19.21,0,0,0-3.67.51C35.47,12.41,35.44,12.61,35.41,12.82Zm-1.08,3.09-.39,0s-.74-.06-1.73-.06a15.72,15.72,0,0,0-3.49.33,1.29,1.29,0,0,1-.17,1.38c-.27.33-.73.87-1.28,1.5,1-.41,2-.83,3-1.26,1.49-.64,2.86-1.27,4.07-1.86Z"/><path class="cls-4" d="M26.53,12.41C23.74,13.63,17.63,16,12,16a16.45,16.45,0,0,1-4.18-.5c.14.21.28.43.41.67a17.57,17.57,0,0,1,1.05,2.22,18.62,18.62,0,0,0,2.69.19c3.27,0,8.37-.75,15.37-3.9.11-.34.25-.78.43-1.26h0a.83.83,0,0,1-.22,0A1.31,1.31,0,0,1,26.53,12.41Z"/><path class="cls-3" d="M3.81,19.53a15,15,0,0,0,1,1.53,21.28,21.28,0,0,1,3.9-2l-.16-.44c-.17-.43-.35-.85-.55-1.27l-.29-.55c-.17-.32-.36-.64-.56-.95C6.46,14.82,5.6,14,4.63,14a1.87,1.87,0,0,0-.94.28c-1.77,1.08-.85,3.53.06,5.18l.06.12Zm.26-3a.83.83,0,0,1,.13-.41.75.75,0,0,1,.37-.33H5l.13,0a1.29,1.29,0,0,1,.39.19,2.54,2.54,0,0,1,.48.51A5,5,0,0,1,6.3,17a6.11,6.11,0,0,1,.6,1.71c0,.09,0,.16,0,.21V19l-.18-.22-.44-.6c-.17-.24-.37-.53-.59-.82s-.22-.29-.33-.43a3.06,3.06,0,0,0-.36-.36l-.15-.08h0s0,0,0,0H4.84a.15.15,0,0,0-.07,0,.38.38,0,0,0-.06.13,1.71,1.71,0,0,0,0,.45c0,.15,0,.31.06.45s.1.54.13.72.06.28.06.28l0-.06-.14-.16a4.27,4.27,0,0,1-.4-.64,3,3,0,0,1-.2-.49A1.75,1.75,0,0,1,4.07,16.54Zm.56-2.95v0Z"/><path class="cls-4" d="M28.35,8.31l.22,0a1.53,1.53,0,0,1,1,1.37c1-1.45,2.15-2.18,3.36-2.18a2.48,2.48,0,0,1,1.32.35c.63-.78,1-1.31,1-1.31-.48.09-1.48.22-1.48.22a5.2,5.2,0,0,0,3.47-5.16c0,.65-2,2.21-2,2.21a3,3,0,0,0-.21-1.3c.08.74-2.26,2.65-2.26,2.65a1.86,1.86,0,0,0,0-1c-.13.7-1.17,1-1.17,1,.65-.78,1.87-4.9,1-5.16S30.55,2.7,30.55,2.7c0-.69-.43-.69-.43-.69a5.59,5.59,0,0,1-1.56,3.9c-.13-.43-.83-.65-.83-.65a12,12,0,0,1-.11,3.3,1.29,1.29,0,0,1,.73-.25Z"/><path d="M27.42,12.53h0l.06.05,0,0,.05,0a.2.2,0,0,0,.11,0h.08a.82.82,0,0,0,.36-.21c.22-.52.47-1,.74-1.53.18-1-.07-1.78-.43-1.87h-.06c-.38,0-.93.65-1.14,1.63a2.64,2.64,0,0,0,.1,1.68h0l.11.16Z"/><ellipse class="cls-3" cx="32.98" cy="10.68" ry="0.01" transform="translate(10.94 37.44) rotate(-68.47)"/><path class="cls-3" d="M33,10.69h0Z"/><path class="cls-3" d="M33,8.25c-2.15,0-3.73,3.23-4.56,5.43-.21.58-.41,1.17-.58,1.76a1.21,1.21,0,0,1,.3.11,15.17,15.17,0,0,1,4.09-.47c1,0,1.79.07,1.79.07C34.32,14.69,36.21,8.25,33,8.25Zm.74,2.65a2.45,2.45,0,0,1-.16.66,4,4,0,0,1-.24.51,6.36,6.36,0,0,1-.46.69c-.13.16-.21.24-.21.24l.08-.3c0-.2.11-.47.19-.78,0-.16.07-.33.1-.51a2.37,2.37,0,0,0,0-.52.37.37,0,0,0,0-.18s0,0,0,0h0l-.09,0-.11,0h-.12l-.11,0a.94.94,0,0,0-.42.19,2.86,2.86,0,0,0-.4.38,6.32,6.32,0,0,0-.6.89c-.17.28-.3.53-.4.7l-.15.27V13a2.2,2.2,0,0,1,0-.23,5,5,0,0,1,.14-.82,4.22,4.22,0,0,1,.47-1.11,2.75,2.75,0,0,1,.48-.56,1.59,1.59,0,0,1,.75-.36l.23,0a1.64,1.64,0,0,1,.22,0l.2,0,.1,0,.05,0h.07a.78.78,0,0,1,.24.18l0,.06,0,.06.06.13A1.19,1.19,0,0,1,33.7,10.9Z"/><path d="M21.48,22.65a2.76,2.76,0,0,0,1.15-.28C23.49,22,25.57,19.89,28,17a.51.51,0,0,0-.06-.71h0a.5.5,0,0,0-.71.07c-1,1.25-3.94,4.58-4.94,5.06h0a2,2,0,0,1-.53.17l-.38.06L21,21.41a.51.51,0,0,0-.63-.06.49.49,0,0,0-.16.69h0a1.43,1.43,0,0,0,1.24.6Zm-4.85.11a.53.53,0,0,0-.24.06l-.15.08H16a12.34,12.34,0,0,1-4.13-1.16,13.63,13.63,0,0,0-4.24-1.27H7.44a.5.5,0,0,0-.41.58H7a.52.52,0,0,0,.53.42h.11a14.94,14.94,0,0,1,3.77,1.2A13.72,13.72,0,0,0,16,23.93,1.36,1.36,0,0,0,17,23.6a.51.51,0,0,0-.06-.71h0A.5.5,0,0,0,16.63,22.76Z"/><path class="cls-4" d="M23.53,33.38s-.15,1.68-2.52,2a8.93,8.93,0,0,1-1.16.1,2.33,2.33,0,0,1-2.05-.78s-2.27.77-2.44,2.07c-.13,1,.8,1.47,1.63,1.47a1.51,1.51,0,0,0,.75-.17,10,10,0,0,1,3.71-1.67,5.08,5.08,0,0,1,.6,0c.56,0,1.33,0,2.07,0a6.13,6.13,0,0,0,2.12-.25,1.41,1.41,0,0,0,1-1.62C27.12,34.14,26.08,33.4,23.53,33.38Z"/></g></g></svg>