<svg xmlns="http://www.w3.org/2000/svg" viewBox="0 0 533.06 388.46"><defs><style>.cls-1{fill:#013144;}.cls-2{fill:#0093dd;}</style></defs><g id="Layer_2" data-name="Layer 2"><g id="Layer_1-2" data-name="Layer 1"><path class="cls-1" d="M338.83,0C231.56,0,144.6,87,144.6,194.23s87,194.23,194.23,194.23,194.23-87,194.23-194.23S446.1,0,338.83,0Zm0,358.9A164.67,164.67,0,1,1,503.49,194.22h0A164.68,164.68,0,0,1,338.83,358.9Z"/><path class="cls-2" d="M272.14,43.64a164.71,164.71,0,0,0,0,301.18c83.17-73.53,91-200.55,17.46-283.72A202.59,202.59,0,0,0,272.14,43.64Z"/><path class="cls-2" d="M144.6,194.23A193.42,193.42,0,0,1,188.1,71.74a131.51,131.51,0,0,0-55-12C59.6,59.76,0,120,0,194.23S59.6,328.7,133.11,328.7a131.51,131.51,0,0,0,55-12A193.37,193.37,0,0,1,144.6,194.23Z"/></g></g></svg>