<?xml version="1.0" encoding="UTF-8"?>
<svg width="116px" height="73px" viewBox="0 0 116 73" xmlns="http://www.w3.org/2000/svg" xmlns:xlink="http://www.w3.org/1999/xlink" version="1.1">
 <!-- Generated by Pixelmator Pro 1.6.1 -->
 <path id="Path" d="M37.805 60.377 C24.988 60.377 14.601 50.049 14.601 37.367 14.601 24.628 24.988 14.358 37.802 14.358 L77.631 14.358 C90.49 14.358 100.867 24.628 100.867 37.367 100.867 50.049 90.49 60.377 77.631 60.377 L37.802 60.377 Z M78.584 72.886 C98.418 72.886 114.393 57 114.393 37.367 114.393 17.712 98.418 1.794 78.584 1.794 L36.886 1.794 C17.07 1.794 1 17.712 1 37.367 1 57 17.07 72.886 36.889 72.886 L78.587 72.886 Z" fill="#c74634" fill-opacity="1" stroke="none"/>
</svg>
