<svg width="193" height="25" xmlns="http://www.w3.org/2000/svg" xmlns:xlink="http://www.w3.org/1999/xlink"><defs><path id="a" d="M0 0h193v25H0z"/></defs><g fill="none" fill-rule="evenodd"><mask id="b" fill="#fff"><use xlink:href="#a"/></mask><path d="M168.892 14.811h20.531l2.83-4.364h-23.361c.96-3.376 4.083-5.832 7.785-5.832h14.097L193.59.24h-17.237c-6.893 0-12.485 5.544-12.485 12.39 0 6.838 5.592 12.371 12.485 12.371h14.829L194 20.643h-17.323c-3.702 0-6.822-2.464-7.785-5.832zM132.749 25l2.807-4.357H118.25c-4.485 0-8.099-3.597-8.099-8.014 0-4.437 3.614-8.014 8.099-8.014h14.085l2.84-4.376h-17.254c-6.907 0-12.515 5.544-12.515 12.39 0 6.838 5.608 12.371 12.515 12.371h14.827zm-119.93-4.357c-4.464 0-8.082-3.597-8.082-8.014 0-4.437 3.618-8.014 8.081-8.014H26.69c4.479 0 8.093 3.577 8.093 8.014 0 4.417-3.614 8.014-8.093 8.014H12.818zM27.022 25c6.908 0 12.472-5.533 12.472-12.371 0-6.846-5.564-12.39-12.472-12.39H12.499C5.597.239 0 5.783 0 12.629 0 19.467 5.597 25 12.5 25h14.523zM71.517 8.61c0-4.623-3.763-8.371-8.44-8.371H42.056V25h4.806V4.615H62.76c2.23 0 4.038 1.785 4.038 3.994 0 2.204-1.809 4.02-4.038 4.02l-13.549-.012L63.56 25h6.97l-9.637-8.018h2.185c4.676 0 8.439-3.752 8.439-8.373zm71.04-8.371h-4.814V22.63c0 .611.26 1.209.71 1.642.46.469 1.09.727 1.752.727h21.888l2.852-4.373h-22.389V.24zM96.567 16.27l-6.77-10.828L77.367 25h-5.678L86.821 1.527C87.467.577 88.577 0 89.79 0c1.185 0 2.275.557 2.92 1.486L107.89 25h-5.663l-2.668-4.373H86.58l-2.83-4.357h12.817z" fill="#C74634" mask="url(#b)"/></g></svg>